solid OpenSCAD_Model
  facet normal -0 0 1
    outer loop
      vertex -30.075 20.55 5
      vertex 30.075 -20.55 5
      vertex 30.075 20.55 5
    endloop
  endfacet
  facet normal 0 0 1
    outer loop
      vertex 30.075 -20.55 5
      vertex -30.075 20.55 5
      vertex -30.075 -20.55 5
    endloop
  endfacet
  facet normal 0 0 -1
    outer loop
      vertex -30.075 -20.55 0
      vertex 30.075 20.55 0
      vertex 30.075 -20.55 0
    endloop
  endfacet
  facet normal -0 0 -1
    outer loop
      vertex 30.075 20.55 0
      vertex -30.075 -20.55 0
      vertex -30.075 20.55 0
    endloop
  endfacet
  facet normal 0 -1 0
    outer loop
      vertex -30.075 -20.55 0
      vertex 30.075 -20.55 5
      vertex -30.075 -20.55 5
    endloop
  endfacet
  facet normal 0 -1 -0
    outer loop
      vertex 30.075 -20.55 5
      vertex -30.075 -20.55 0
      vertex 30.075 -20.55 0
    endloop
  endfacet
  facet normal 1 -0 0
    outer loop
      vertex 30.075 -20.55 5
      vertex 30.075 20.55 0
      vertex 30.075 20.55 5
    endloop
  endfacet
  facet normal 1 0 0
    outer loop
      vertex 30.075 20.55 0
      vertex 30.075 -20.55 5
      vertex 30.075 -20.55 0
    endloop
  endfacet
  facet normal 0 1 -0
    outer loop
      vertex 30.075 20.55 0
      vertex -30.075 20.55 5
      vertex 30.075 20.55 5
    endloop
  endfacet
  facet normal 0 1 0
    outer loop
      vertex -30.075 20.55 5
      vertex 30.075 20.55 0
      vertex -30.075 20.55 0
    endloop
  endfacet
  facet normal -1 0 0
    outer loop
      vertex -30.075 -20.55 0
      vertex -30.075 20.55 5
      vertex -30.075 20.55 0
    endloop
  endfacet
  facet normal -1 -0 0
    outer loop
      vertex -30.075 20.55 5
      vertex -30.075 -20.55 0
      vertex -30.075 -20.55 5
    endloop
  endfacet
endsolid OpenSCAD_Model
